Coordinates
version=1
nRows=10
nColumns=40
inDegrees=yes

Units are S.I. units (second, meters, Newtons, ...)
Angles are in degrees.

endheader
time	pelvis_tilt	pelvis_list	pelvis_rotation	pelvis_tx	pelvis_ty	pelvis_tz	hip_flexion_r	hip_adduction_r	hip_rotation_r	knee_angle_r	knee_angle_r_beta	ankle_angle_r	subtalar_angle_r	mtp_angle_r	hip_flexion_l	hip_adduction_l	hip_rotation_l	knee_angle_l	knee_angle_l_beta	ankle_angle_l	subtalar_angle_l	mtp_angle_l	lumbar_extension	lumbar_bending	lumbar_rotation	arm_flex_r	arm_add_r	arm_rot_r	elbow_flex_r	pro_sup_r	wrist_flex_r	wrist_dev_r	arm_flex_l	arm_add_l	arm_rot_l	elbow_flex_l	pro_sup_l	wrist_flex_l	wrist_dev_l
      0.73000000	      0.78672556	     -3.57307292	     -2.00013004	     -0.95002781	      0.89256379	     -0.99364912	     -7.01935298	      3.96021548	    -19.00416561	    -16.14548968	     -0.28179195	     11.31747494	      8.96752828	     -6.08421753	     23.44165526	      4.92817327	     10.59068444	    -29.85649782	     -0.52109419	      3.15520428	     -1.05524197	    -15.21611450	    -10.29873999	      5.17366856	      5.75440582	     20.06672827	    -16.54108808	     17.04126969	     19.55616971	     89.95437384	      0.00000000	      0.00000000	     -2.04856768	      9.70065194	    -14.51309324	     19.59285836	     89.95437384	      0.00000000	      0.00000000
      0.74000000	      0.82937920	     -3.37944996	     -2.20370496	     -0.94267839	      0.89187706	     -0.99354679	     -7.44364106	      3.67507979	    -18.57041521	    -16.43480622	     -0.28684148	     11.49018876	      8.76984822	     -6.19869848	     23.28798807	      4.60851960	     10.87358555	    -26.83695266	     -0.46839319	      0.97580193	     -1.38339030	    -14.43498343	    -10.52113298	      4.89459828	      6.02691417	     20.44676609	    -16.67635764	     17.26424375	     19.99694736	     89.95437384	      0.00000000	      0.00000000	     -2.15805176	      9.44308226	    -13.74458332	     19.46801485	     89.95437384	      0.00000000	      0.00000000
      0.75000000	      0.69415886	     -3.41186685	     -2.30620327	     -0.93498369	      0.89070033	     -0.99342693	     -7.74112528	      3.65209970	    -18.35794759	    -16.64346730	     -0.29048330	     11.63750948	      8.65603193	     -6.27683664	     23.64214688	      4.63704142	     11.52398426	    -24.60418095	     -0.42942397	     -0.69816749	     -1.23339498	    -13.78999661	    -10.46581179	      4.87822379	      6.17760765	     20.77258498	    -16.71495580	     17.37531950	     20.28176390	     89.95437384	      0.00000000	      0.00000000	     -2.36295412	      9.26554361	    -13.26776674	     19.39233882	     89.95437384	      0.00000000	      0.00000000
      0.76000000	      0.58106997	     -3.46718917	     -2.49894947	     -0.92715228	      0.88949154	     -0.99353267	     -8.06251181	      3.59490874	    -18.14630927	    -16.86367836	     -0.29432671	     11.64675988	      8.68347713	     -6.34705343	     23.85378566	      4.67262777	     12.09305477	    -22.38880135	     -0.39075830	     -2.31614919	     -1.03789723	    -13.16841550	    -10.45192440	      4.92908598	      6.36183178	     21.08573957	    -16.76796316	     17.48056086	     20.60363419	     89.95437384	      0.00000000	      0.00000000	     -2.59125819	      8.97048229	    -12.74265376	     19.27656352	     89.95437384	      0.00000000	      0.00000000
      0.77000000	      0.54649651	     -3.43634505	     -2.65366737	     -0.91915818	      0.88835185	     -0.99368238	     -8.45541553	      3.41488549	    -18.00582218	    -17.14969688	     -0.29931868	     11.74700950	      8.76602068	     -6.45439979	     23.89070228	      4.63477120	     12.98855204	    -20.18532228	     -0.35230033	     -3.91953902	     -0.84423357	    -12.53113853	    -10.51260214	      4.86514073	      6.47515192	     21.37698068	    -16.76980739	     17.64560593	     20.88703177	     89.95437384	      0.00000000	      0.00000000	     -2.77479025	      8.67729152	    -11.95092677	     19.11265641	     89.95437384	      0.00000000	      0.00000000
      0.78000000	      0.60959169	     -3.40435710	     -2.85817620	     -0.91087532	      0.88734320	     -0.99386112	     -8.94991149	      3.17576168	    -17.94586613	    -17.46172293	     -0.30476456	     11.75997717	      9.04761323	     -6.66365618	     23.71703679	      4.59890500	     13.94614191	    -18.09450838	     -0.31580875	     -5.11977560	     -0.84111256	    -11.93275723	    -10.68491492	      4.78296277	      6.57801342	     21.65761689	    -16.72992918	     17.89977836	     21.12512834	     89.95437384	      0.00000000	      0.00000000	     -2.98156546	      8.33938115	    -10.89551847	     18.95817859	     89.95437384	      0.00000000	      0.00000000
      0.79000000	      0.60255568	     -3.35592010	     -3.06846683	     -0.90250916	      0.88619851	     -0.99409117	     -9.35889413	      2.91420776	    -17.83664035	    -17.81464284	     -0.31092417	     11.71925409	      9.33989252	     -6.86421851	     23.62786594	      4.53898280	     14.95407434	    -16.24991416	     -0.28361451	     -5.83390954	     -1.01180583	    -11.52746656	    -10.78050009	      4.67617552	      6.69022033	     21.85527738	    -16.67742514	     18.12923375	     21.38269007	     89.95437384	      0.00000000	      0.00000000	     -3.15300624	      8.02622114	    -10.05972519	     18.77035736	     89.95437384	      0.00000000	      0.00000000
      0.80000000	      0.36266091	     -3.61086273	     -3.05996456	     -0.89413404	      0.88455240	     -0.99417474	     -9.63250048	      3.10666368	    -17.89138864	    -17.95113909	     -0.31330648	     11.72626434	      9.34973335	     -6.87036406	     24.08669020	      4.81067473	     15.36491045	    -15.22591217	     -0.26574230	     -5.53408543	     -1.06677194	    -11.45526604	    -10.60645959	      4.92086785	      6.57081717	     22.03132037	    -16.50248716	     18.15820204	     21.53931173	     89.95437384	      0.00000000	      0.00000000	     -3.36435933	      7.88634361	    -10.02820290	     18.62715428	     89.95437384	      0.00000000	      0.00000000
      0.81000000	      0.15313983	     -3.77195350	     -3.15381588	     -0.88549890	      0.88316239	     -0.99448963	     -9.87446548	      3.13404306	    -17.72640899	    -18.22077644	     -0.31801254	     11.61933482	      9.39215611	     -6.87532800	     24.30701594	      4.88995204	     15.67568177	    -14.11880524	     -0.24641964	     -5.18806253	     -1.28306223	    -11.39921552	    -10.43220392	      5.08727915	      6.56327772	     22.12321813	    -16.35718490	     18.21533956	     21.61303773	     89.95437384	      0.00000000	      0.00000000	     -3.56698328	      7.66608012	     -9.89296370	     18.47328856	     89.95437384	      0.00000000	      0.00000000
      0.82000000	      0.72601918	     -3.15431305	     -3.99728661	     -0.87602576	      0.88317158	     -0.99443037	    -10.76973964	      1.95550392	    -17.09306559	    -18.88257470	     -0.32956310	     11.33487267	     10.10584666	     -7.19380916	     22.66133183	      4.15840742	     15.81545849	    -11.64407764	     -0.20322749	     -5.05737771	     -2.23473028	    -11.16777712	    -11.14969345	      4.20847796	      7.22940727	     22.12658000	    -16.30835111	     18.65183001	     21.88879737	     89.95437384	      0.00000000	      0.00000000	     -3.59179744	      7.19695124	     -8.14054725	     18.13014940	     89.95437384	      0.00000000	      0.00000000
